<svg id="Слой_1" xmlns="http://www.w3.org/2000/svg" viewBox="0 0 150 150">
    <style>
        .st0{fill:#6ecdbe}.st1{fill:#e8eef5}.st2{fill:#dae3ea}.st3{fill:#ef4953}.st4{fill:#1ddd93}.st5{fill:#fff}.st6{fill:#303d4a}
    </style>
    <circle class="st0" cx="75" cy="75" r="75" id="Слой_1_1_"/>
    <path class="st1" d="M58 49s-1-1-6-1-12 7-13 12 3 13 6 15 8 4 8 10 1 26 1 26-1 3 5 3h35l2-1 4-35s7-4 9-8 3-13-4-19-14-2-14-2-2-12-16-13-17 13-17 13z"/>
    <path class="st2" d="M53.6 102H80l16 11-3.2 1-36.5-.3L54 111z"/>
    <path class="st3" d="M103 81l-17 24 11 8 17-24z"/>
    <path class="st4" d="M80 65l11 8-17 24-11-8z"/>
    <path class="st5" d="M92 73l11 8-17 24-11-8z" id="Слой_6"/>
    <path class="st6" d="M63.2 68c.2-.3.2-.6.1-.9l-1.1-2.9c-.2-.5-.8-.8-1.3-.6s-.8.8-.6 1.3l1.1 2.9c.3.8 1.4.9 1.8.2z" id="Слой_4"/>
    <g id="Слой_3">
        <path class="st6" d="M111.9 61.6c-.7-7.6-6.8-13.7-14.3-14.5-.5-.1-1.1-.1-1.6-.1-1.3 0-2.6.2-3.9.5-2.2-6.7-8.2-11.7-15.3-12.4-8.8-.9-16.4 4.6-18.9 12.4-1.3-.3-2.6-.5-3.9-.5-.5 0-1.1 0-1.6.1-7.6.7-13.7 6.9-14.3 14.5-.6 7 3.3 13.2 9.2 15.9 2.7 1.3 4.6 3.8 4.7 6.8l1 26.8c.1 2.2 1.8 3.9 4 3.9h36.3c1.6 0 3-.9 3.6-2.3-.6-.2-1.3-.5-1.8-.9-.3.7-1 1.2-1.8 1.2H56.9c-1.1 0-2-.8-2-1.9l-.3-8.1H58c.6 0 1-.4 1-1s-.4-1-1-1h-3.5l-.6-16.8c-.1-3.7-2.4-7-5.8-8.6-5.4-2.5-8.5-8-8-13.9.6-6.6 6-12 12.5-12.7.5 0 1-.1 1.4-.1 1.2 0 2.3.2 3.4.4-.3 1.3-.4 2.5-.4 3.7 0 2.3.5 4.5 1.3 6.6.2.5.8.7 1.3.5.5-.2.7-.8.5-1.3-.8-2.1-1.2-4.4-1.1-6.9.6-8.1 7.3-14.6 15.4-14.9 9.1-.3 16.6 7 16.6 16 0 2.2-.4 4.2-1.2 6.1-.2.5 0 1.1.5 1.3.5.3 1.1 0 1.4-.5 1.3-3.1 1.8-6.5 1.1-10.2 0-.1 0-.2-.1-.3 1.1-.3 2.2-.4 3.4-.4.5 0 1 0 1.4.1 6.6.6 11.9 6.1 12.5 12.7.5 5.9-2.6 11.4-8 13.9-1.2.6-2.2 1.3-3.1 2.2.6.3 1.1.8 1.5 1.3.7-.7 1.5-1.3 2.4-1.7 5.8-2.8 9.7-8.9 9.1-15.9z"/>
        <path class="st6" d="M64 102c0 .6.4 1 1 1h17c-.6-.5-1.1-1.2-1.4-2H65c-.6 0-1 .4-1 1z"/>
    </g>
    <path class="st6" d="M114.1 87.5L81.4 64.6l2.9-4.1c.3-.5.2-1.1-.2-1.4s-1.1-.2-1.4.2l-4 5.7-16.2 23-17.8 25.4c-.3.5-.2 1.1.2 1.4.5.3 1.1.2 1.4-.2L63 90.8l32.8 22.9c.9.6 2.2.4 2.8-.5l16.1-22.9c.6-.9.4-2.2-.6-2.8zm-12.6-6.4L85.4 104l-9.8-6.9 16.1-22.9 9.8 6.9zM80.2 66.2l9.8 6.9L74 96l-9.8-6.9 16-22.9zm16.7 45.9l-9.8-6.9 16.1-22.9 9.8 6.9-16.1 22.9z" id="Слой_5"/>
</svg>
