<svg id="Слой_1" xmlns="http://www.w3.org/2000/svg" viewBox="0 0 150 150">
    <style>
        .st0{fill:#6ecdbe}.st1{fill:#e8eef5}.st2{fill:#fcde54}.st3{fill:#ef4953}.st4{fill:#303d4a}
    </style>
    <circle class="st0" cx="75" cy="75" r="75" id="Слой_1_1_"/>
    <path class="st1" d="M74 39l-8-3-5 8-8 1-2 2v6l-1 3-5 4v3l4 6v3l-2 5 1 2 7 4 1 4 3 4h7l8 5h3l15-4 2-8 3-3 5-2 1-2-2-8 4-7v-2l-5-4-2-3 1-6-2-3h-6l-3-2-4-6h-2l-6 3z" id="Слой_8"/>
    <circle class="st2" cx="75" cy="66" r="21" id="Слой_7"/>
    <g id="Слой_6">
        <path class="st3" d="M73 95l10 18 1-1 6-12 13 1-9-16-2 6-3 1-5-1h-3l-3 3-3 2z"/>
        <path class="st3" d="M55 84l-10 18 14-2 7 13 8-15-1-4-5-3h-4l-4 1-2-2z"/>
    </g>
    <path class="st4" d="M95.1 83.7c.5-.6 1.1-1.1 1.9-1.4l3.7-1.3c2.2-.8 3.4-3.3 2.5-5.6l-1.4-3.7c-.5-1.4-.3-3 .6-4.2l2.4-3.2c1.5-1.9 1.1-4.6-.9-6.1l-3.2-2.4c-1.2-.9-1.9-2.3-1.7-3.8l.3-4c.2-2.4-1.6-4.5-4-4.6l-4-.2c-1.5-.1-2.8-.9-3.5-2.3l-1.9-3.6c-.3-1.5-1.8-2.3-3.3-2.3-.7 0-1.4.2-2.1.6l-3.5 2c-.6.4-1.4.6-2.1.6s-1.4-.2-2.1-.6l-3.5-2c-.7-.4-1.4-.6-2.1-.6-1.5 0-3 .8-3.7 2.3l-1.9 3.6c-.7 1.3-2 2.2-3.5 2.3l-4 .2c-2.4.1-4.2 2.2-4 4.6l.3 4c.1 1.5-.5 2.9-1.7 3.8l-3.2 2.4c-1.9 1.4-2.3 4.2-.9 6.1l2.4 3.2c.9 1.2 1.1 2.8.6 4.2l-1.4 3.7c-.9 2.2.3 4.8 2.5 5.6l3.7 1.3c.7.3 1.3.7 1.8 1.3L44 101.3c-.4.7.1 1.5.9 1.5h.1l14.2-1.9 5.5 13.2c.2.4.6.6.9.6s.7-.2.9-.5l8.1-14.1 8.2 14.2c.2.3.5.5.9.5s.8-.2.9-.6L90 101l14.2 1.9h.1c.8 0 1.3-.9.9-1.6L95.1 83.7zm-41.9-3.4L49.5 79c-.6-.2-1-.6-1.3-1.2s-.3-1.2-.1-1.8l1.4-3.7c.8-2 .5-4.4-.9-6.1L46.5 63c-.4-.5-.5-1.1-.4-1.7.1-.6.4-1.1.9-1.5l3.2-2.4c1.8-1.3 2.7-3.4 2.5-5.6l-.3-4c-.1-.6.1-1.2.5-1.7s.9-.7 1.5-.8l4-.2c2.2-.1 4.1-1.4 5.2-3.3l1.9-3.6c.4-.7 1.1-1.2 2-1.2.4 0 .7.1 1.1.3l3.5 2c.9.5 2 .8 3.1.8s2.1-.3 3.1-.8l3.5-2c.1-.2.4-.3.8-.3.8 0 1.6.5 2 1.2l1.9 3.6c1 1.9 3 3.2 5.2 3.3l4 .2c.6 0 1.1.3 1.5.8s.6 1.1.5 1.7l-.3 4c-.2 2.2.8 4.3 2.5 5.6l3.2 2.4c.5.4.8.9.9 1.5s-.1 1.2-.4 1.7l-2.4 3.2c-1.3 1.7-1.7 4.1-.9 6.1l1.4 3.7c.2.6.2 1.2-.1 1.8s-.7 1-1.3 1.2l-3.7 1.3c-2 .7-3.6 2.5-4 4.7l-.8 3.9c-.2 1-1.1 1.8-2.2 1.8-.2 0-.3 0-.5-.1l-3.9-.9c-.5-.1-.9-.2-1.4-.2-1.7 0-3.3.7-4.5 1.9l-2.8 2.9c-.4.4-1 .7-1.6.7s-1.2-.2-1.6-.7l-2.8-2.9c-1.2-1.2-2.8-1.9-4.5-1.9-.5 0-1 .1-1.4.2l-3.9.9c-.2 0-.3.1-.5.1-1.1 0-2-.8-2.2-1.8l-.8-3.9c-.4-2.1-2-3.9-4-4.7zm12.4 31.3L61 100.2c-.3-.8-1-1.2-1.8-1.2h-.3l-12.2 1.6 8.5-14.7.7 3.5c.4 2 2.2 3.4 4.1 3.4.3 0 .6 0 1-.1l3.9-.9c.3-.1.6-.1 1-.1 1.1 0 2.2.5 3 1.3l2.8 2.9c.3.3.5.5.8.7l.9 1.5-7.8 13.5zM90.3 99H90c-.8 0-1.5.5-1.8 1.2l-4.7 11.4-8.4-14.4c.9-.1 1.9-.5 2.6-1.3l2.8-2.9c.8-.8 1.9-1.3 3-1.3.3 0 .6 0 1 .1l3.9.9c.3.1.6.1 1 .1 2 0 3.7-1.4 4.1-3.4l.7-3.3 8.3 14.5L90.3 99z"/>
    <path class="st4" d="M60.5 85.1c.1.7.5 1.3 1 1.6.6.3 1.2.4 1.8.3l.8-.2c3.1-.7 6.5.3 8.7 2.6l.5.5c.5.4 1.1.7 1.7.7s1.2-.2 1.6-.8c2.6-2.6 6.4-3.8 10-2.9.6.2 1.3 0 1.8-.3s.9-.9 1-1.5l.2-.8c.6-3.2 2.9-5.8 5.9-6.9l.8-.3c.6-.2 1-.6 1.3-1.2s.3-1.2.1-1.8l-.1-.2c-1.3-3.5-.7-7.4 1.5-10.3l.1-.1c.4-.5.6-1.1.5-1.7s-.4-1.1-.9-1.5l-.1-.1c-3-2.1-4.6-5.7-4.3-9.4v-.1c0-.6-.2-1.2-.6-1.7-.5-.5-1-.8-1.7-.8-3.7-.2-7.1-2.4-8.8-5.7-.3-.5-.8-.9-1.4-1.1-.6-.2-1.2-.1-1.8.2-3.2 1.8-7.2 1.8-10.4 0-.6-.3-1.2-.4-1.8-.2-.6.2-1.1.6-1.4 1.2-1.7 3.3-5.1 5.5-8.8 5.7-.6 0-1.2.3-1.6.8-.5.5-.7 1.1-.6 1.7v.1c.3 3.6-1.3 7.2-4.3 9.4l-.1.1c-.5.3-.8.9-.9 1.5 0 .6.1 1.2.5 1.7l.1.1c2.3 2.9 2.8 6.9 1.5 10.3l-.1.2c-.2.6-.2 1.2.1 1.8.2.5.7 1 1.4 1.2 3.5 1.3 6.1 4.3 6.8 7.9zM55 65.5c0-11 9-20 20-20s20 9 20 20-9 20-20 20-20-9-20-20zm8.5 19.2l-.7.2c-.1.1-.2 0-.2 0s-.1-.1-.1-.2v-.1l-.3-1.2c.6.4 1.3.9 1.9 1.2-.2.1-.4.1-.6.1zM75 88.5s-.1 0-.2-.1l-.5-.5c-.2-.2-.3-.3-.5-.4h2.4c-.4.3-.7.6-1 .9-.1.1-.2.1-.2.1zm12.5-3.8c0 .1-.1.2-.1.2h-.3c-.4-.1-.9-.2-1.3-.2.7-.4 1.4-.8 2-1.3 0 .2-.1.3-.1.5l-.2.8zm8.4-9.7c0 .1-.1.2-.2.2l-.8.3c-.1 0-.2.1-.4.2.3-.7.7-1.4.9-2.1.1.3.2.7.3 1l.1.2c.1.1.1.2.1.2zm1.7-13.1c.1.1.1.2.1.2s0 .1-.1.2l-.1.1-.6.9c-.1-.8-.2-1.6-.3-2.3.3.3.6.5 1 .9zm-5.3-11.6c.1 0 .1.1.1.2V52c-.5-.7-1.1-1.3-1.7-2 .5.1 1 .2 1.4.2.1 0 .2.1.2.1zm-11.1-7h.2l.2.2c.2.4.5.9.8 1.3-.9-.3-1.7-.6-2.6-.8.4-.2.9-.4 1.4-.7zm-12.8.2l.2-.2s.1-.1.2 0c.5.3 1 .5 1.5.7-.9.2-1.8.4-2.6.7.2-.3.5-.8.7-1.2zm-10.8 7.1c0-.1.1-.2.1-.2.1 0 .1-.1.3-.1.4 0 .8-.1 1.2-.2-.6.6-1.1 1.2-1.6 1.8v-1.3zm-5.2 11.7c-.1-.1-.1-.2-.1-.2s0-.1.1-.2l.1-.1c.3-.2.6-.5 1-.8-.2.7-.3 1.5-.3 2.3l-.6-.9-.2-.1zM54.1 75v-.2l.1-.2c.1-.3.2-.7.3-1 .3.7.6 1.4 1 2.1-.4-.2-.8-.4-1.2-.5l-.2-.2z"/>
</svg>
