<svg width="60" height="90" viewBox="0 0 60 90" xmlns="http://www.w3.org/2000/svg">
    <title>
        pdf
    </title>
    <g fill-rule="nonzero" fill="none">
        <path d="M60 30l-22-7-8-23H4C1.8 0 0 1.8 0 4v82c0 2.2 1.8 4 4 4h52c2.2 0 4-1.8 4-4V30z" fill="#F08058"/>
        <path d="M33 30l27 27V30z" fill="#C9522D"/>
        <path d="M34 30h26L30 0v26c0 2.2 1.8 4 4 4z" fill="#F29C81"/>
        <g fill="#FFF">
            <path d="M37.1 49l-1.4-1.4-4.7 4.6V36h-2v16.2l-4.7-4.6-1.4 1.4 7.1 7.1z"/>
            <path d="M17 59h26v2H17z"/>
            <path d="M23.7 65.8c-.8-.5-1.9-.8-3.3-.8-.4 0-.9 0-1.4.1-.5 0-1 .1-1.5.2v9.6h2.2v-3.3h.7c1.5 0 2.6-.3 3.4-.8.8-.5 1.2-1.4 1.2-2.5-.2-1.2-.5-2-1.3-2.5zM22 69.4c-.4.2-1 .3-1.7.3h-.7v-2.8h.9c.3 0 .6 0 .9.1.3.1.5.1.7.2.2.1.3.3.4.4.1.1.1.4.1.7 0 .5-.2.9-.6 1.1z"/>
            <path d="M33.4 66.2c-.5-.4-1.1-.7-1.7-.9-.6-.2-1.4-.3-2.3-.3-.4 0-.9 0-1.4.1-.5 0-1.1.1-1.6.2v9.4c.5.1 1 .2 1.5.2s1 .1 1.4.1c.9 0 1.6-.1 2.3-.3.7-.2 1.3-.5 1.8-.9s.8-.9 1.1-1.6c.3-.6.4-1.4.4-2.2 0-.9-.1-1.6-.4-2.3-.2-.6-.6-1.1-1.1-1.5zm-1.5 6c-.5.6-1.3.8-2.4.8h-.9v-6.1h1c1.1 0 1.9.3 2.4.8s.8 1.3.8 2.3c-.1.9-.4 1.7-.9 2.2z"/>
            <path d="M43.3 66.9v-1.8h-6.5v9.7H39v-4h3.8V69H39v-2.1z"/>
        </g>
    </g>
</svg>
