<svg id="Слой_1" xmlns="http://www.w3.org/2000/svg" viewBox="0 0 150 150">
    <style>
        .st0{fill:#6ecdbe}.st1{fill:#e8eef5}.st2{fill:#f08058}.st3{fill:#dae3ea}.st4{fill:#6e9bcc}.st5{fill:#fcde54}.st6{fill:#ef4953}.st7{fill:#303d4a}
    </style>
    <circle class="st0" cx="75" cy="75" r="75" id="Слой_1_1_"/>
    <path class="st1" d="M42 58h66v52H42z" id="Слой_10"/>
    <path class="st2" d="M83 42l-1-2-1-2-3-1-3-1-4 1-4 4-.5 1H48v12h54V42z" id="Слой_5"/>
    <path class="st3" d="M36 110h78v4H36z"/>
    <path class="st2" d="M48 68h24v45H48z"/>
    <path class="st4" d="M78 68h24v26H78z" id="Слой_8"/>
    <g id="Слой_4">
        <path class="st5" d="M39 60c-1.7 0-3-1.3-3-3V46h6v11c0 1.7-1.3 3-3 3z"/>
        <path class="st5" d="M51 60c-1.7 0-3-1.3-3-3v-3h6v3c0 1.7-1.3 3-3 3z"/>
        <path class="st5" d="M63 60c-1.7 0-3-1.3-3-3v-3h6v3c0 1.7-1.3 3-3 3z"/>
        <path class="st5" d="M75 60c-1.7 0-3-1.3-3-3v-3h6v3c0 1.7-1.3 3-3 3z"/>
        <path class="st5" d="M87 60c-1.7 0-3-1.3-3-3v-3h6v3c0 1.7-1.3 3-3 3z"/>
        <path class="st5" d="M99 60c-1.7 0-3-1.3-3-3v-3h6v3c0 1.7-1.3 3-3 3z"/>
        <path class="st5" d="M111 60c-1.7 0-3-1.3-3-3V46h6v11c0 1.7-1.3 3-3 3z"/>
        <path class="st6" d="M105 60c-1.7 0-3-1.3-3-3V46h6v11c0 1.7-1.3 3-3 3z"/>
        <path class="st6" d="M45 60c-1.7 0-3-1.3-3-3V46h6v11c0 1.7-1.3 3-3 3z"/>
        <path class="st6" d="M57 60c-1.7 0-3-1.3-3-3v-3h6v3c0 1.7-1.3 3-3 3z"/>
        <path class="st6" d="M69 60c-1.7 0-3-1.3-3-3v-3h6v3c0 1.7-1.3 3-3 3z"/>
        <path class="st6" d="M81 60c-1.7 0-3-1.3-3-3v-3h6v3c0 1.7-1.3 3-3 3z"/>
        <path class="st6" d="M93 60c-1.7 0-3-1.3-3-3v-3h6v3c0 1.7-1.3 3-3 3z"/>
    </g>
    <g id="Слой_7">
        <path class="st7" d="M101 67H79c-1.1 0-2 .9-2 2v24c0 1.1.9 2 2 2h22c1.1 0 2-.9 2-2V69c0-1.1-.9-2-2-2zm0 26H79V69h22v24z"/>
        <path class="st7" d="M102 97H78c-.6 0-1 .4-1 1s.4 1 1 1h24c.6 0 1-.4 1-1s-.4-1-1-1z"/>
        <circle class="st7" cx="68" cy="90" r="1"/>
        <path class="st7" d="M67.5 93h-15c-1.1 0-2 .9-2 2v14c0 1.1.9 2 2 2h15c1.1 0 2-.9 2-2V95c0-1.1-.9-2-2-2zm0 16h-15V95h15v14z"/>
        <path class="st7" d="M67.5 71h-15c-1.1 0-2 .9-2 2v12c0 1.1.9 2 2 2h15c1.1 0 2-.9 2-2V73c0-1.1-.9-2-2-2zm0 14h-15V73h15v12z"/>
        <path class="st7" d="M111.6 61c2-.3 3.4-2.1 3.4-4.1V45h-12v-2c0-1.1-.9-2-2-2H84.2c-1.5-3.5-5.1-6-9.2-6s-7.6 2.5-9.2 6H49c-1.1 0-2 .9-2 2v2H35v11.8c0 2 1.4 3.8 3.4 4.1 1 .1 1.9-.1 2.6-.5V109h-3c-1.7 0-3 1.3-3 3s1.3 3 3 3h74c1.7 0 3-1.3 3-3s-1.3-3-3-3h-3V60.4c.7.5 1.6.7 2.6.6zM109 47h4v10c0 1.1-.9 2-2 2s-2-.9-2-2V47zm-6 0h4v9.9c0 1-.7 1.9-1.7 2.1-1.3.2-2.3-.8-2.3-2V47zm-54-4h16.8c.8 0 1.5-.5 1.8-1.2 1.3-2.9 4.2-4.8 7.3-4.8s6.1 1.9 7.3 4.8c.3.7 1 1.2 1.8 1.2h17v10H49V43zm52 12v1.9c0 1-.7 1.9-1.7 2.1-1.3.2-2.3-.8-2.3-2v-1h-1.1c-.5 0-.9.4-.9.9 0 1-.7 1.9-1.7 2.1-1.3.2-2.3-.8-2.3-2v-1h-1.1c-.5 0-.9.4-.9.9 0 1-.7 1.9-1.7 2.1-1.3.2-2.3-.8-2.3-2v-1h-1.1c-.5 0-.9.4-.9.9 0 1-.7 1.9-1.7 2.1-1.3.2-2.3-.8-2.3-2v-1h-1.1c-.5 0-.9.4-.9.9 0 1-.7 1.9-1.7 2.1-1.3.2-2.3-.8-2.3-2v-1h-1.1c-.5 0-.9.4-.9.9 0 1-.7 1.9-1.7 2.1-1.3.2-2.3-.8-2.3-2v-1h-1.1c-.5 0-.9.4-.9.9 0 1-.7 1.9-1.7 2.1-1.3.2-2.3-.8-2.3-2v-1h-1.1c-.5 0-.9.4-.9.9 0 1-.7 1.9-1.7 2.1-1.3.2-2.3-.8-2.3-2v-1h-1.1c-.5 0-.9.4-.9.9 0 1-.7 1.9-1.7 2.1-1.3.2-2.3-.8-2.3-2v-2h52zm-58-8h4v9.9c0 1-.7 1.9-1.7 2.1-1.3.2-2.3-.8-2.3-2V47zm-4 12c-1.1 0-2-.9-2-2V47h4v10c0 1.1-.9 2-2 2zm-1 54c-.6 0-1-.4-1-1s.4-1 1-1h9v2h-9zm11 0V69h22v44H49zm64-1c0 .6-.4 1-1 1H73v-2h39c.6 0 1 .4 1 1zm-40-3V69c0-1.1-.9-2-2-2H49c-1.1 0-2 .9-2 2v40h-4V60.4c.6.4 1.3.6 2 .6 1.2 0 2.3-.5 3-1.4.7.8 1.8 1.4 3 1.4s2.3-.5 3-1.4c.7.8 1.8 1.4 3 1.4s2.3-.5 3-1.4c.7.8 1.8 1.4 3 1.4s2.3-.5 3-1.4c.7.8 1.8 1.4 3 1.4s2.3-.5 3-1.4c.7.8 1.8 1.4 3 1.4s2.3-.5 3-1.4c.7.8 1.8 1.4 3 1.4s2.3-.5 3-1.4c.7.8 1.8 1.4 3 1.4s2.3-.5 3-1.4c.7.8 1.8 1.4 3 1.4s2.3-.5 3-1.4c.7.8 1.8 1.4 3 1.4s2.3-.5 3-1.4c.7.8 1.8 1.4 3 1.4.7 0 1.4-.2 2-.6V109H73z"/>
        <path class="st7" d="M66 47h18c.6 0 1-.4 1-1s-.4-1-1-1H66c-.6 0-1 .4-1 1s.4 1 1 1z"/>
        <path class="st7" d="M66 51h18c.6 0 1-.4 1-1s-.4-1-1-1H66c-.6 0-1 .4-1 1s.4 1 1 1z"/>
    </g>
</svg>
