<?xml version="1.0" encoding="UTF-8"?><!DOCTYPE svg PUBLIC "-//W3C//DTD SVG 1.1//EN" "http://www.w3.org/Graphics/SVG/1.1/DTD/svg11.dtd"><svg xmlns="http://www.w3.org/2000/svg" xmlns:xlink="http://www.w3.org/1999/xlink"><symbol id="icon-arr-down" viewBox="0 0 10 30">
    <g id="Page-1" stroke-width="1" fill-rule="evenodd">
        <g fill-rule="nonzero">
            <polygon id="Shape" points="5 30 10 25 8.6 23.6 6 26.2 6 0 4 0 4 26.2 1.4 23.6 0 25"/>
        </g>
    </g>
</symbol><symbol id="icon-arr-left" viewBox="0 0 30 10">
    <g id="Page-1" stroke-width="1" fill-rule="evenodd">
        <polygon id="Shape" fill-rule="nonzero" transform="translate(15.000000, 5.000000) rotate(180.000000) translate(-15.000000, -5.000000) " points="25 0 23.6 1.4 26.2 4 0 4 0 6 26.2 6 23.6 8.6 25 10 30 5"/>
    </g>
</symbol><symbol id="icon-arr-right" viewBox="0 0 30 10">
    <g id="Page-1" stroke-width="1" fill-rule="evenodd">
        <g fill-rule="nonzero">
            <polygon id="Shape" points="25 0 23.6 1.4 26.2 4 0 4 0 6 26.2 6 23.6 8.6 25 10 30 5"/>
        </g>
    </g>
</symbol><symbol id="icon-close" viewBox="0 0 14 14">
    <g id="Page-1" stroke-width="1" fill-rule="evenodd">
        <g id="&#x406;&#x2020;&#x2122;&#x430;&#x43B;&#x432;&#x43C;" fill-rule="nonzero">
            <polygon id="Shape" points="0 14 1.4 14 7 8.4 12.6 14 14 14 14 12.6 8.4 7 14 1.4 14 0 12.6 0 7 5.6 1.4 0 0 0 0 1.4 5.6 7 0 12.6"/>
        </g>
    </g>
</symbol><symbol id="icon-decor-line-bottom" viewBox="0 0 192 7">
    <g id="Page-1" stroke-width="1" fill-rule="evenodd">
        <g id="decor-line-bottom" fill-rule="nonzero">
            <path d="M72.8,2.3 L73.1,2.6 C74.1,3.7 75.5,4.3 77,4.3 C78.5,4.3 79.9,3.7 80.9,2.6 L81,2.5 C82.5,0.9 84.4,0.1 86.5,0.1 C88.6,0.1 90.6,1 92,2.5 C93,3.6 94.5,4.2 96,4.2 C97.6,4.2 99,3.6 100,2.5 L100.2,2.3 C101.6,0.8 103.5,0 105.5,0 C107.5,0 109.4,0.8 110.8,2.3 L111.1,2.6 C112.1,3.7 113.5,4.3 115,4.3 C116.5,4.3 117.9,3.7 118.9,2.6 L118.9,2.4 C120.4,0.9 122.3,0.1 124.4,0.1 C126.5,0.1 128.5,1 129.9,2.5 C130.9,3.6 132.4,4.2 133.9,4.2 C135.4,4.2 136.8,3.6 137.9,2.5 C139.4,0.9 141.3,0.1 143.4,0.1 C145.5,0.1 147.5,1 148.9,2.5 C149.9,3.6 151.4,4.2 152.9,4.2 C154.4,4.2 155.8,3.6 156.9,2.5 C158.4,0.9 160.3,0.1 162.4,0.1 C164.5,0.1 166.5,1 167.9,2.5 C170.3,5 174.1,5.3 176.9,3.3 C179.6,1.3 182.9,0.2 186.3,0.2 L190.9,0.2 C191.5,0.2 191.9,0.6 191.9,1.2 C191.9,1.8 191.5,2.2 190.9,2.2 L186.3,2.2 C183.3,2.2 180.4,3.1 178,4.9 C174.4,7.6 169.5,7.1 166.4,3.9 C165.4,2.8 163.9,2.2 162.4,2.2 C160.9,2.2 159.5,2.8 158.4,3.9 C156.9,5.5 155,6.3 152.9,6.3 C150.8,6.3 148.8,5.4 147.4,3.9 C146.4,2.8 144.9,2.2 143.4,2.2 C141.9,2.2 140.5,2.8 139.4,3.9 C137.9,5.5 136,6.3 133.9,6.3 C131.8,6.3 129.8,5.4 128.4,3.9 C127.4,2.8 125.9,2.2 124.4,2.2 C122.9,2.2 121.5,2.8 120.4,3.9 L120.3,4 C118.9,5.5 117,6.3 115,6.3 C113,6.3 111.1,5.5 109.7,4 L109.4,3.7 C108.3,2.6 107,2 105.5,2 C104,2 102.6,2.6 101.6,3.7 L101.5,3.9 C100,5.4 98.1,6.2 96,6.2 C93.9,6.2 92,5.4 90.4,3.9 C89.4,2.8 87.9,2.2 86.4,2.2 C84.9,2.2 83.5,2.8 82.4,3.9 L82.3,4 C80.9,5.5 79,6.3 77,6.3 C75,6.3 73.1,5.5 71.7,4 L71.4,3.7 C70.4,2.6 69,2 67.5,2 C66,2 64.6,2.6 63.6,3.7 L63.3,4 C61.9,5.5 60,6.3 58,6.3 C56,6.3 54.1,5.5 52.7,4.1 L52.4,3.8 C51.4,2.7 50,2.1 48.5,2.1 C47,2.1 45.6,2.7 44.6,3.8 L44.5,3.9 C43,5.4 41.1,6.2 39,6.2 C36.9,6.2 35,5.4 33.5,3.9 C32.5,2.8 31,2.2 29.5,2.2 C28,2.2 26.6,2.8 25.5,3.9 C22.5,7.1 17.5,7.5 13.9,4.9 C11.4,3.1 8.6,2.2 5.6,2.2 L1,2.2 C0.4,2.2 0,1.8 0,1.2 C0,0.6 0.4,0.2 1,0.2 L5.6,0.2 C9,0.2 12.2,1.3 15,3.3 C17.8,5.3 21.6,5 24,2.5 C25.5,0.9 27.4,0.1 29.5,0.1 C31.6,0.1 33.6,1 35,2.5 C36,3.6 37.5,4.2 39,4.2 C40.5,4.2 42,3.6 43,2.5 L43.2,2.3 C44.6,0.8 46.5,0 48.5,0 C50.5,0 52.4,0.8 53.8,2.3 L54.1,2.6 C55.1,3.7 56.5,4.3 58,4.3 C59.5,4.3 60.9,3.7 61.9,2.6 L62.2,2.3 C63.6,0.8 65.5,0 67.5,0 C69.5,0 71.4,0.9 72.8,2.3 Z" id="Shape"/>
        </g>
    </g>
</symbol><symbol id="icon-decor-line-top" viewBox="0 0 192 8">
    <g id="Page-1" stroke-width="1" fill-rule="evenodd">
        <g id="decor-line-top" fill-rule="nonzero">
            <path d="M67.5,7.6 C65.5,7.6 63.6,6.8 62.2,5.3 L61.9,5 C60.9,3.9 59.5,3.3 58,3.3 C56.5,3.3 55.1,3.9 54.1,5 L53.8,5.3 C52.4,6.8 50.5,7.6 48.5,7.6 C46.5,7.6 44.6,6.8 43.2,5.3 L43,5.1 C42,4 40.5,3.4 39,3.4 C37.5,3.4 36,4 35,5.1 C33.6,6.6 31.6,7.5 29.5,7.5 C27.4,7.5 25.5,6.7 24,5.1 C21.6,2.6 17.8,2.3 15,4.3 C12.2,6.3 9,7.4 5.6,7.4 L1,7.4 C0.4,7.4 0,7 0,6.4 C0,5.8 0.4,5.4 1,5.4 L5.6,5.4 C8.6,5.4 11.4,4.5 13.9,2.7 C17.5,0.1 22.5,0.5 25.5,3.7 C26.6,4.8 28,5.4 29.5,5.4 C31,5.4 32.5,4.8 33.5,3.7 C35,2.2 36.9,1.4 39,1.4 C41.1,1.4 43,2.2 44.5,3.7 L44.6,3.8 C45.6,4.9 47,5.5 48.5,5.5 C50,5.5 51.4,4.9 52.4,3.8 L52.7,3.5 C54.1,2.1 56,1.3 58,1.3 C60,1.3 61.9,2.1 63.3,3.6 L63.6,3.9 C64.6,5 66,5.6 67.5,5.6 C69,5.6 70.4,5 71.4,3.9 L71.7,3.6 C73.1,2.1 75,1.3 77,1.3 C79,1.3 80.9,2.1 82.3,3.6 L82.4,3.7 C83.5,4.8 84.9,5.4 86.4,5.4 C87.9,5.4 89.4,4.8 90.4,3.7 C92,2.2 93.9,1.4 96,1.4 C98.1,1.4 100,2.2 101.5,3.7 L101.6,3.9 C102.6,5 104,5.6 105.5,5.6 C107,5.6 108.3,5 109.4,3.9 L109.7,3.6 C111.1,2.1 113,1.3 115,1.3 C117,1.3 118.9,2.1 120.3,3.6 L120.4,3.7 C121.5,4.8 122.9,5.4 124.4,5.4 C125.9,5.4 127.4,4.8 128.4,3.7 C129.8,2.2 131.8,1.3 133.9,1.3 C136,1.3 137.9,2.1 139.4,3.7 C140.5,4.8 141.9,5.4 143.4,5.4 C144.9,5.4 146.4,4.8 147.4,3.7 C148.8,2.2 150.8,1.3 152.9,1.3 C155,1.3 156.9,2.1 158.4,3.7 C159.5,4.8 160.9,5.4 162.4,5.4 C163.9,5.4 165.4,4.8 166.4,3.7 C169.5,0.5 174.4,-1.33226763e-15 178,2.7 C180.4,4.5 183.3,5.4 186.3,5.4 L190.9,5.4 C191.5,5.4 191.9,5.8 191.9,6.4 C191.9,7 191.5,7.4 190.9,7.4 L186.3,7.4 C182.9,7.4 179.6,6.3 176.9,4.3 C174.1,2.3 170.3,2.6 167.9,5.1 C166.5,6.6 164.5,7.5 162.4,7.5 C160.3,7.5 158.4,6.7 156.9,5.1 C155.8,4 154.4,3.4 152.9,3.4 C151.4,3.4 149.9,4 148.9,5.1 C147.5,6.6 145.5,7.5 143.4,7.5 C141.3,7.5 139.4,6.7 137.9,5.1 C136.8,4 135.4,3.4 133.9,3.4 C132.4,3.4 130.9,4 129.9,5.1 C128.5,6.6 126.5,7.5 124.4,7.5 C122.3,7.5 120.4,6.7 118.9,5.2 L118.9,5 C117.9,3.9 116.5,3.3 115,3.3 C113.5,3.3 112.1,3.9 111.1,5 L110.8,5.3 C109.4,6.8 107.5,7.6 105.5,7.6 C103.5,7.6 101.6,6.8 100.2,5.3 L100,5.1 C99,4 97.6,3.4 96,3.4 C94.5,3.4 93,4 92,5.1 C90.6,6.6 88.6,7.5 86.5,7.5 C84.4,7.5 82.5,6.7 81,5.1 L80.9,5 C79.9,3.9 78.5,3.3 77,3.3 C75.5,3.3 74.1,3.9 73.1,5 L72.8,5.3 C71.4,6.7 69.5,7.6 67.5,7.6 Z" id="Shape"/>
        </g>
    </g>
</symbol><symbol id="icon-fb" viewBox="0 0 42 42">
    <g id="Page-1" stroke-width="1" fill-rule="evenodd">
        <g id="facebook" fill-rule="nonzero">
            <path d="M21,0 C9.4,0 0,9.4 0,21 C0,32.6 9.4,42 21,42 C32.6,42 42,32.6 42,21 C42,9.4 32.6,0 21,0 Z M26.8,12.9 L23.8,12.9 C23.3,12.9 22.6,13.2 22.6,14.2 L22.6,17 L26.8,17 L26.3,21.8 L22.5,21.8 L22.5,35.5 L16.8,35.5 L16.8,21.8 L14.1,21.8 L14.1,17 L16.8,17 L16.8,13.9 C16.8,11.7 17.9,8.2 22.5,8.2 L26.7,8.2 L26.8,12.9 Z" id="Shape"/>
        </g>
    </g>
</symbol><symbol id="icon-google-plus" viewBox="0 0 42 42">
    <g id="Page-1" stroke-width="1" fill-rule="evenodd">
        <g id="google-plus" fill-rule="nonzero">
            <path d="M21,0 C9.4,0 0,9.4 0,21 C0,32.6 9.4,42 21,42 C32.6,42 42,32.6 42,21 C42,9.4 32.6,0 21,0 Z M22.5,27.6 C20.4,30.4 16.4,31.2 13.2,30.1 C10.4,29.2 8.3,26.7 7.6,23.9 C7.4,23.3 7.4,22.6 7.4,21.9 C7.2,17.4 11.1,13.3 15.6,13.3 C17.9,13.1 20.1,14 21.8,15.4 C21.1,16.2 20.4,16.9 19.6,17.7 C18.1,16.8 16.3,16.1 14.5,16.7 C11.6,17.5 9.9,20.9 11,23.7 C11.2,24.4 11.6,25.1 12.1,25.6 C13.6,27.2 16.1,27.9 18.2,27 C19.6,26.5 20.6,25.1 21,23.7 C19.4,23.7 17.7,23.7 16,23.6 C16,22.6 16,21.6 16,20.6 C18.8,20.6 21.5,20.6 24.3,20.6 C24.4,23.1 24,25.7 22.5,27.6 Z M34.6,20.7 C34.6,21.5 34.6,22.3 34.6,23.2 C33.8,23.2 32.9,23.2 32.1,23.2 C32.1,24 32.1,24.8 32.1,25.7 C31.3,25.7 30.5,25.7 29.6,25.7 C29.6,24.9 29.6,24.1 29.6,23.2 C28.8,23.2 28,23.2 27.1,23.2 C27.1,22.4 27.1,21.6 27.1,20.7 C27.9,20.7 28.7,20.7 29.6,20.7 C29.6,19.9 29.6,19.1 29.6,18.2 C30.4,18.2 31.2,18.2 32.1,18.2 C32.1,19 32.1,19.8 32.1,20.7 C32.9,20.7 33.7,20.7 34.6,20.7 Z" id="Shape"/>
        </g>
    </g>
</symbol><symbol id="icon-in" viewBox="0 0 32 32">
    <g id="Page-1" stroke-width="1" fill-rule="evenodd">
        <g id="in_&#xAE;&#x2122;&#x413;&#x301;_1" fill-rule="nonzero">
            <path d="M16,0 C7.2,0 0,7.2 0,16 C0,24.8 7.2,32 16,32 C24.8,32 32,24.8 32,16 C32,7.2 24.8,0 16,0 Z M13.2,21.7 L10.2,21.7 L10.2,12.7 L13.2,12.7 L13.2,21.7 Z M12.9,11 C12.6,11.3 12.2,11.4 11.7,11.4 C11.2,11.4 10.8,11.3 10.5,11 C10.2,10.7 10,10.3 10,9.9 C10,9.5 10.2,9.1 10.5,8.8 C10.8,8.5 11.2,8.4 11.7,8.4 C12.2,8.4 12.6,8.5 12.9,8.8 C13.2,9.1 13.4,9.5 13.4,9.9 C13.4,10.3 13.2,10.7 12.9,11 Z M24,21.7 L21,21.7 L21,16.9 C21,16.3 20.9,15.8 20.6,15.4 C20.3,15 20,14.9 19.4,14.9 C19,14.9 18.7,15 18.4,15.2 C18.1,15.4 17.9,15.7 17.8,16 C17.7,16.2 17.7,16.4 17.7,16.7 L17.7,21.7 L14.7,21.7 C14.7,19.3 14.7,17.3 14.7,15.8 C14.7,14.3 14.7,13.4 14.7,13.1 L14.7,12.7 L17.7,12.7 L17.7,14 C17.8,13.8 17.9,13.7 18.1,13.5 C18.2,13.4 18.4,13.2 18.6,13 C18.8,12.8 19.1,12.7 19.4,12.6 C19.7,12.5 20.1,12.5 20.4,12.5 C21.4,12.5 22.3,12.8 22.9,13.5 C23.5,14.2 23.8,15.2 23.8,16.5 L23.8,21.7 L24,21.7 Z" id="Shape"/>
        </g>
    </g>
</symbol><symbol id="icon-insta" viewBox="0 0 42 42">
    <g id="Page-1" stroke-width="1" fill-rule="evenodd">
        <g id="instagram" fill-rule="nonzero">
            <path d="M27.3,11.2 L14.7,11.2 C12.7,11.2 11.1,12.8 11.1,14.8 L11.1,27.3 C11.1,29.3 12.7,30.9 14.7,30.9 L27.2,30.9 C29.2,30.9 30.8,29.3 30.8,27.3 L30.8,14.8 C30.9,12.8 29.3,11.2 27.3,11.2 Z M21,27.6 C17.4,27.6 14.5,24.7 14.5,21.1 C14.5,17.5 17.4,14.6 21,14.6 C24.6,14.6 27.5,17.5 27.5,21.1 C27.5,24.7 24.6,27.6 21,27.6 Z M27.7,15.9 C26.8,15.9 26.2,15.2 26.2,14.4 C26.2,13.6 26.9,12.9 27.7,12.9 C28.5,12.9 29.2,13.6 29.2,14.4 C29.2,15.2 28.6,15.9 27.7,15.9 Z" id="Shape"/>
            <path d="M21,17.3 C18.9,17.3 17.2,19 17.2,21.1 C17.2,23.2 18.9,24.9 21,24.9 C23.1,24.9 24.8,23.2 24.8,21.1 C24.8,19 23.1,17.3 21,17.3 Z" id="Shape"/>
            <path d="M21,0 C9.4,0 0,9.4 0,21 C0,32.6 9.4,42 21,42 C32.6,42 42,32.6 42,21 C42,9.4 32.6,0 21,0 Z M33.6,27.3 C33.6,30.8 30.7,33.7 27.2,33.7 L14.7,33.7 C11.2,33.7 8.3,30.8 8.3,27.3 L8.3,14.8 C8.3,11.3 11.2,8.4 14.7,8.4 L27.2,8.4 C30.7,8.4 33.6,11.3 33.6,14.8 L33.6,27.3 Z" id="Shape"/>
        </g>
    </g>
</symbol><symbol id="icon-pinterest" viewBox="0 0 42 42">
    <g id="Page-1" stroke-width="1" fill-rule="evenodd">
        <g id="pinterest" fill-rule="nonzero">
            <path d="M21,0 C9.4,0 0,9.4 0,21 C0,32.6 9.4,42 21,42 C32.6,42 42,32.6 42,21 C42,9.4 32.6,0 21,0 Z M22.7,28.1 C21.1,28 20.4,27.2 19.2,26.4 C18.5,30 17.7,33.4 15.2,35.2 C14.4,29.8 16.3,25.7 17.2,21.4 C15.7,18.9 17.4,13.8 20.5,15.1 C24.4,16.6 17.1,24.5 22,25.4 C27.1,26.4 29.1,16.6 26,13.4 C21.4,8.8 12.8,13.3 13.8,19.9 C14.1,21.5 15.7,22 14.5,24.2 C11.6,23.6 10.7,21.3 10.8,18.2 C11,13.2 15.3,9.7 19.6,9.2 C25.1,8.6 30.2,11.2 30.9,16.4 C31.8,22.3 28.5,28.6 22.7,28.1 Z" id="Shape"/>
        </g>
    </g>
</symbol><symbol id="icon-tw" viewBox="0 0 42 42">
    <g id="Page-1" stroke-width="1" fill-rule="evenodd">
        <g id="twitter" fill-rule="nonzero">
            <path d="M21,0 C9.4,0 0,9.4 0,21 C0,32.6 9.4,42 21,42 C32.6,42 42,32.6 42,21 C42,9.4 32.6,0 21,0 Z M31.4,16.2 C31.4,16.4 31.4,16.6 31.4,16.8 C31.4,23.4 26.3,31.1 17.1,31.1 C14.3,31.1 11.6,30.3 9.4,28.8 C9.8,28.8 10.2,28.9 10.6,28.9 C12.9,28.9 15.1,28.1 16.8,26.8 C14.6,26.8 12.7,25.3 12.1,23.3 C12.4,23.4 12.7,23.4 13,23.4 C13.5,23.4 13.9,23.3 14.3,23.2 C12,22.7 10.3,20.7 10.3,18.3 C10.3,18.3 10.3,18.3 10.3,18.2 C11,18.6 11.7,18.8 12.6,18.8 C11.2,17.9 10.4,16.4 10.4,14.6 C10.4,13.7 10.7,12.8 11.1,12.1 C13.6,15.1 17.3,17.1 21.5,17.4 C21.4,17 21.4,16.6 21.4,16.3 C21.4,13.5 23.7,11.3 26.4,11.3 C27.8,11.3 29.2,11.9 30.1,12.9 C31.2,12.7 32.3,12.3 33.3,11.7 C32.9,12.9 32.1,13.9 31.1,14.5 C32.1,14.4 33.1,14.1 34,13.7 C33.2,14.6 32.3,15.5 31.4,16.2 Z" id="Shape"/>
        </g>
    </g>
</symbol><symbol id="icon-vk" viewBox="0 0 42 42">
    <g id="Page-1" stroke-width="1" fill-rule="evenodd">
        <g id="vk" fill-rule="nonzero">
            <path d="M21,0 C9.4,0 0,9.4 0,21 C0,32.6 9.4,42 21,42 C32.6,42 42,32.6 42,21 C42,9.4 32.6,0 21,0 Z M33,30.2 L29.3,30.2 C29.3,30.2 28.5,30.4 27.5,29.6 C26.1,28.6 24.8,26.2 23.8,26.5 C22.8,26.8 22.8,29 22.8,29 C22.8,29 22.8,29.5 22.6,29.7 C22.3,30 21.8,30 21.8,30 L20.2,30 C20.2,30 16.6,30.2 13.4,26.9 C9.9,23.3 6.8,16 6.8,16 C6.8,16 6.6,15.5 6.8,15.3 C7,15 7.6,15 7.6,15 L11.5,15 C11.5,15 11.9,15.1 12.1,15.3 C12.3,15.5 12.4,15.8 12.4,15.8 C12.4,15.8 13,17.4 13.9,18.9 C15.5,21.7 16.3,22.4 16.9,22.1 C17.7,21.7 17.5,18.1 17.5,18.1 C17.5,18.1 17.5,16.8 17.1,16.2 C16.8,15.8 16.1,15.6 15.9,15.6 C15.7,15.6 16,15.1 16.5,14.8 C17.2,14.4 18.5,14.4 19.9,14.4 C21,14.4 21.4,14.5 21.8,14.6 C23.2,14.9 22.7,16.2 22.7,19.2 C22.7,20.2 22.5,21.5 23.2,22 C23.5,22.2 24.2,22 26.1,18.9 C27,17.4 27.6,15.7 27.6,15.7 C27.6,15.7 27.7,15.4 28,15.3 C28.2,15.2 28.5,15.2 28.5,15.2 L32.7,15.2 C32.7,15.2 34,15.1 34.2,15.6 C34.4,16.2 33.7,17.6 32,19.8 C29.2,23.5 28.9,23.2 31.2,25.3 C33.4,27.3 33.9,28.3 33.9,28.5 C35,30.1 33,30.2 33,30.2 Z" id="Shape"/>
        </g>
    </g>
</symbol><symbol id="icon-website" viewBox="0 0 32 32">
    <g id="Page-1" stroke-width="1" fill-rule="evenodd">
        <g id="&#x431;&#x2020;&#xA9;&#x432;_&#xAE;&#x2122;&#x413;&#x301;" fill-rule="nonzero">
            <path d="M16,0 C7.2,0 0,7.2 0,16 C0,24.8 7.2,32 16,32 C24.8,32 32,24.8 32,16 C32,7.2 24.8,0 16,0 Z M22.8,21 L21,22.9 C20.9,23 20.8,23 20.6,23 C20.5,23 20.3,22.9 20.2,22.9 L16.3,19 L14.7,21.8 C14.6,22 14.4,22.1 14.2,22.1 C14,22.1 13.8,22 13.8,21.8 L9,9.7 C9,9.5 9,9.3 9.1,9.1 C9.3,9 9.5,9 9.7,9 L21.7,13.8 C21.9,13.9 22,14 22,14.2 C22,14.4 21.9,14.6 21.7,14.7 L18.9,16.3 L22.8,20.2 C23,20.5 23,20.8 22.8,21 Z" id="Shape"/>
        </g>
    </g>
</symbol></svg>