<svg id="Слой_1" xmlns="http://www.w3.org/2000/svg" viewBox="0 0 150 150">
    <style>
        .st0{fill:#6ecdbe}.st1{fill:#872735}.st2{fill:#f08058}.st3{fill:#1ddd93}.st4{fill:#fff}.st5{fill:#ef4953}.st6{fill:#303d4a}
    </style>
    <g id="Слой_2_1_">
        <circle class="st0" cx="75" cy="75" r="75" id="Слой_1_2_"/>
    </g>
    <path class="st1" d="M86.3 45.8l-3 4.3s-1.2 5.7-4.9 8.2-4.4 7.4-4.5 12.6 0 41.3 0 41.3-.3 1.7 5 1.8l21.3.4 1.8-2.3V65.6s-1-4.8-4.6-6.9c-3.7-2.1-5.5-8.7-5.2-11.8.5-3.2-5.9-1.1-5.9-1.1z" id="Слой_11"/>
    <path class="st2" d="M83.4 35.9h8.9V50h-8.9z" id="Слой_10"/>
    <path class="st3" d="M83 74v25.7s-9-2.6-9-12.3S83 74 83 74z" id="Слой_9"/>
    <path class="st4" d="M93.1 74v26s-4.4 2.4-10.1 0V74s5.8-2.1 10.1 0z" id="Слой_8"/>
    <g id="Слой_6">
        <path class="st5" d="M47.9 78.9s3.8-1.8 9.4-.9 6.5-1.3 9.3-.3 3 1.5 3 1.5-2 11.1-9.2 14l-1.6 1.6-6.9-5.6s-2.5-3.6-2.6-3.8-1.4-6.5-1.4-6.5z"/>
        <path class="st5" d="M93.1 74v26s8.1-2.3 9-13-9-13-9-13z"/>
    </g>
    <g id="Слой_7">
        <path class="st6" d="M70.1 77.9c-.1-.2-.1-.4-.1-.6l-1.4-12.2h-20l-1.4 12.2v.5h-.1l.1.2c-.4 5.3 1.9 10.5 6.1 13.9l4.4 3.6V107.8c-.3 1.5-1.4 2.8-2.8 3.3l-1.8.7c-.8.3-1.2 1.1-1 1.9s.8 1.4 1.7 1.4h9.9c.8 0 1.5-.6 1.7-1.4s-.3-1.6-1.1-1.9l-1.6-.6c-1.6-.6-2.7-1.9-3-3.5V95.5l4.4-3.6c4.2-3.3 6.5-8.6 6-14zM50.3 67.1h16.4l1.2 10.1-.6-.2c-2-.7-4.2-.7-6.3 0-1.6.6-3.4.6-5 0-1-.3-2-.5-3-.5 0-.3 0-.6.1-.9l.2-1.4c.1-.6-.4-1.1-1-1.1-.5 0-1 .4-1 .9l-.2 1.4c-.1.4-.1.9-.1 1.3l-1.2.3-.6.2 1.1-10.1zM61.8 113l.2.1h-6.8l.3-.1c1.3-.5 2.4-1.4 3.1-2.5.7 1.1 1.8 2 3.2 2.5zm.9-22.6l-4.2 3.4-4.2-3.4C51 87.7 49 83.6 49 79.3l1.4-.5c.2-.1.4-.1.6-.2.1.7.2 1.5.3 2.2.1.6.8 1 1.4.7.5-.2.7-.7.6-1.2-.2-.7-.2-1.3-.3-2 .8 0 1.6.1 2.3.4 2 .7 4.2.7 6.3 0 1.6-.6 3.4-.6 5 0l1.4.5c.1 4.4-1.9 8.5-5.3 11.2z"/>
        <path class="st6" d="M58.4 88.4C57 87.3 55.9 86 55 84.5c-.3-.5-.9-.6-1.4-.3-.5.3-.6.9-.4 1.3 1 1.7 2.3 3.2 3.9 4.5l1 .8.6-.6c.4-.4.4-1.1-.1-1.5l-.2-.3z"/>
    </g>
    <path class="st6" d="M98.3 58c-3-1.9-4.8-5.1-4.8-8.6V37h.5c.6 0 1-.4 1-1s-.4-1-1-1H82c-.6 0-1 .4-1 1s.4 1 1 1h.5v12.4c0 3.5-1.8 6.8-4.8 8.6S73 63.1 73 66.6V112c0 1.7 1.3 3 3 3h24c1.7 0 3-1.3 3-3V66.6c0-3.5-1.8-6.7-4.7-8.6zm2.7 29c0 5-2.8 9.3-7 11.5v-23c4.2 2.2 7 6.5 7 11.5zm-9 12.4c-1.3.4-2.6.6-4 .6s-2.7-.2-4-.6V74.6c1.3-.4 2.6-.6 4-.6s2.7.2 4 .6v24.8zm-10-.9c-4.2-2.2-7-6.5-7-11.5s2.8-9.3 7-11.5v23zm19 13.5c0 .6-.4 1-1 1H76c-.6 0-1-.4-1-1v-2h16c.6 0 1-.4 1-1s-.4-1-1-1H75V94.5c2.6 4.5 7.4 7.5 13 7.5s10.4-3 13-7.5V112zM88 72c-5.6 0-10.4 3-13 7.5V67h16c.6 0 1-.4 1-1s-.4-1-1-1H75.2c.4-2.2 1.7-4.1 3.6-5.3 3.1-2 5.1-5.1 5.6-8.7H88c.6 0 1-.4 1-1s-.4-1-1-1h-3.5V37h7v12.4c0 4.2 2.1 8.1 5.7 10.3 2.4 1.5 3.8 4.1 3.8 6.9v12.9C98.4 75 93.6 72 88 72z" id="Слой_5"/>
</svg>
